<svg xmlns="http://www.w3.org/2000/svg" width="512" height="512" viewBox="0 0 512 512" version="1.1">
	<path d="M 31.184 1.562 C 17.052 5.365, 5.230 17.340, 1.511 31.620 C 0.229 36.542, 0 48.669, 0 111.756 L 0 186.091 2.455 188.545 C 5.794 191.885, 11.206 191.885, 14.545 188.545 L 17 186.091 17 113.227 C 17 29.970, 16.731 32.991, 24.861 24.861 C 30.928 18.794, 36.830 17, 50.727 17 C 60.397 17, 61.255 16.836, 63.545 14.545 C 66.885 11.206, 66.885 5.794, 63.545 2.455 C 61.197 0.106, 60.559 0.003, 48.795 0.066 C 41.487 0.105, 34.344 0.712, 31.184 1.562 M 236.455 2.455 C 234.760 4.149, 234 6.021, 234 8.500 C 234 10.979, 234.760 12.851, 236.455 14.545 L 238.909 17 310.780 17 L 382.651 17 384.926 14.579 C 388.221 11.071, 388.042 5.293, 384.544 2.284 L 381.888 0 310.399 0 L 238.909 0 236.455 2.455 M 425.456 2.284 C 421.958 5.293, 421.779 11.071, 425.074 14.579 C 427.348 16.999, 427.358 17, 449.493 17 C 476.329 17, 479.838 17.743, 487.048 24.952 C 493.272 31.177, 495 36.778, 495 50.727 C 495 60.397, 495.164 61.255, 497.455 63.545 C 500.794 66.885, 506.206 66.885, 509.545 63.545 C 511.877 61.214, 511.999 60.502, 511.976 49.295 C 511.962 42.808, 511.496 35.527, 510.940 33.115 C 508.451 22.316, 500.333 11.316, 490.681 5.659 C 482.426 0.821, 476.716 0, 451.346 0 C 428.589 0, 428.057 0.047, 425.456 2.284 M 66.929 42.361 C 56.687 45.137, 48.823 51.887, 44.101 61.954 L 41.500 67.500 41.500 256 L 41.500 444.500 44.135 450.120 C 47.842 458.025, 53.131 463.447, 60.836 467.240 L 67.457 470.500 250.884 470.763 C 415.941 471, 434.550 470.870, 436.700 469.461 C 441.395 466.384, 441.999 459.999, 437.975 455.975 C 436.023 454.023, 433.896 454, 256.549 454 C 130.173 454, 75.586 453.676, 71.986 452.904 C 65.087 451.424, 60.576 446.913, 59.096 440.014 C 57.549 432.799, 57.549 79.201, 59.096 71.986 C 60.576 65.087, 65.087 60.576, 71.986 59.096 C 79.201 57.549, 432.799 57.549, 440.014 59.096 C 446.913 60.576, 451.424 65.087, 452.904 71.986 C 453.675 75.584, 454 129.092, 454 252.615 C 454 365.190, 454.351 428.787, 454.979 429.961 C 456.225 432.288, 460.891 433.935, 464.362 433.271 C 465.838 432.989, 467.941 431.619, 469.036 430.227 C 471.009 427.719, 471.024 426.107, 470.763 247.577 L 470.500 67.457 467.240 60.836 C 463.447 53.131, 458.025 47.842, 450.120 44.135 L 444.500 41.500 258 41.311 C 112.322 41.163, 70.500 41.393, 66.929 42.361 M 86.455 92.455 C 83.452 95.457, 83.181 100.767, 85.862 104.078 C 87.174 105.699, 89.167 106.543, 92.612 106.939 L 97.500 107.500 97.769 129.692 L 98.038 151.885 100.654 153.942 C 102.093 155.074, 104.522 156, 106.053 156 C 114.559 156, 115 154.346, 115 122.473 L 115 95.846 112.077 92.923 C 109.231 90.077, 108.886 90, 99.031 90 C 89.618 90, 88.737 90.172, 86.455 92.455 M 148.500 91.970 C 141.358 94.809, 136.546 99.184, 133.323 105.770 C 130.734 111.062, 130.523 112.379, 130.567 123 C 130.625 136.924, 132.695 142.801, 139.719 148.984 C 152.023 159.815, 173.284 157.840, 182.610 145 C 187.287 138.560, 188.284 133.928, 187.815 120.821 C 187.366 108.250, 185.892 104.046, 179.800 97.954 C 172.580 90.734, 158.418 88.026, 148.500 91.970 M 206.455 92.455 C 200.900 98.009, 204.874 107, 212.885 107 L 216.860 107 217.180 128.922 C 217.496 150.540, 217.533 150.879, 219.924 153.422 C 221.563 155.165, 223.400 156, 225.593 156 C 234.626 156, 235 154.666, 235 122.473 L 235 95.846 232.077 92.923 C 229.231 90.077, 228.886 90, 219.031 90 C 209.618 90, 208.737 90.172, 206.455 92.455 M 270.365 91.089 C 265.082 92.620, 257.704 98.263, 254.791 103 C 251.218 108.809, 249.625 117.515, 250.355 127.240 C 251.104 137.220, 254.004 143.953, 259.719 148.984 C 272.241 160.006, 293.739 157.802, 302.736 144.573 C 307.287 137.883, 308.263 133.252, 307.806 120.520 C 307.346 107.691, 305.850 103.882, 298.679 97.272 C 291.814 90.944, 279.867 88.335, 270.365 91.089 M 326.455 92.455 C 320.893 98.016, 324.875 107, 332.900 107 L 336.892 107 337.196 128.922 C 337.496 150.551, 337.532 150.878, 339.924 153.422 C 344.407 158.190, 352.953 156.019, 354.537 149.710 C 354.845 148.481, 354.963 135.629, 354.799 121.150 L 354.500 94.824 351.694 92.412 C 349.134 90.211, 348.015 90, 338.899 90 C 329.626 90, 328.733 90.176, 326.455 92.455 M 391 90.935 C 382.361 93.573, 376.409 98.665, 372.811 106.500 C 370.835 110.800, 370.515 113.109, 370.524 123 C 370.537 136.867, 372.610 142.727, 379.719 148.984 C 390.866 158.796, 409.543 158.303, 419.923 147.923 C 425.936 141.910, 427.379 137.711, 427.799 125 C 428.289 110.171, 426.383 104.328, 418.847 97.552 C 411.589 91.027, 399.842 88.236, 391 90.935 M 154.014 108.752 C 149.224 111.154, 148.032 114.131, 148.015 123.734 C 148.001 131.315, 148.218 132.213, 150.750 135.046 C 155.953 140.868, 165.989 139.790, 169.483 133.033 C 171.436 129.257, 171.466 118.051, 169.536 113.432 C 168.541 111.050, 166.950 109.459, 164.568 108.464 C 160.041 106.573, 158.262 106.621, 154.014 108.752 M 274.378 108.437 C 269.147 110.714, 268 113.370, 268 123.207 C 268 131.352, 268.193 132.185, 270.750 135.046 C 276.169 141.110, 286.562 139.685, 289.579 132.466 C 291.388 128.135, 291.412 117.922, 289.623 113.640 C 288.760 111.575, 286.931 109.720, 284.722 108.672 C 280.515 106.676, 278.529 106.631, 274.378 108.437 M 393.314 108.950 C 388.760 111.727, 388 113.797, 388 123.418 C 388 131.333, 388.204 132.197, 390.750 135.046 C 396.169 141.110, 406.562 139.685, 409.579 132.466 C 411.481 127.913, 411.397 117.638, 409.423 113.478 C 407.764 109.983, 402.888 106.997, 398.849 107.004 C 397.557 107.006, 395.066 107.882, 393.314 108.950 M 3.077 219.589 L 0 222.178 0 247.634 L 0 273.091 2.455 275.545 C 4.149 277.240, 6.021 278, 8.500 278 C 10.979 278, 12.851 277.240, 14.545 275.545 L 17 273.091 16.968 247.795 C 16.935 221.261, 16.826 220.565, 12.316 218.163 C 8.954 216.373, 6.438 216.761, 3.077 219.589 M 105.734 218.030 C 95.891 220.502, 88.098 227.565, 85.477 236.388 C 83.513 243.004, 83.565 258.171, 85.575 264.941 C 91.285 284.167, 119.880 289.703, 134.053 274.326 C 140.428 267.410, 141.397 264.292, 141.452 250.500 C 141.504 237.400, 140.253 232.975, 134.612 226.301 C 128.957 219.611, 115.166 215.661, 105.734 218.030 M 161.159 218.601 C 157.852 220.917, 156.713 224.600, 158.050 228.652 C 159.388 232.705, 161.539 234, 166.934 234 L 171 234 171 255.944 C 171 277.357, 171.055 277.953, 173.284 280.544 C 176.293 284.042, 182.071 284.221, 185.579 280.926 L 188 278.651 188 250.415 L 188 222.178 184.923 219.589 C 182.101 217.214, 181.085 217, 172.646 217 C 165.828 217, 162.853 217.415, 161.159 218.601 M 224.500 218.330 C 215.080 221.441, 208.931 226.896, 205.994 234.747 C 203.379 241.735, 203.203 258.305, 205.667 265.537 C 207.942 272.214, 215.022 279.182, 221.828 281.443 C 229.061 283.845, 238.687 283.620, 245.007 280.901 C 251.521 278.099, 258.246 270.706, 260.105 264.303 C 262.319 256.681, 261.880 239.567, 259.326 233.911 C 256.713 228.121, 250.943 222.305, 245.366 219.838 C 239.746 217.352, 229.667 216.623, 224.500 218.330 M 280.712 219.012 C 277.368 221.642, 276.434 226.005, 278.400 229.806 C 280.181 233.251, 281.732 234, 287.082 234 L 291 234 291 255.944 C 291 277.357, 291.055 277.953, 293.284 280.544 C 296.499 284.282, 302.501 284.282, 305.716 280.544 C 307.975 277.917, 308 277.589, 308 250.367 L 308 222.846 305.077 219.923 C 302.259 217.105, 301.814 217, 292.712 217 C 284.765 217, 282.865 217.319, 280.712 219.012 M 344.500 218.336 C 338.402 220.360, 334.809 222.501, 331.362 226.165 C 325.643 232.243, 324.611 235.408, 324.184 248.181 C 323.689 262.982, 325.231 268.326, 331.929 275.024 C 337.633 280.729, 343.773 283.004, 353.428 282.990 C 365.396 282.974, 374.324 277.247, 379.136 266.500 C 382.101 259.878, 382.379 243.252, 379.657 235.307 C 377.471 228.930, 371.538 222.588, 365.225 219.882 C 359.250 217.321, 349.704 216.609, 344.500 218.336 M 400.712 219.012 C 397.331 221.672, 396.434 226.004, 398.455 229.913 C 400.015 232.929, 401.604 233.687, 407.500 234.226 L 410.500 234.500 410.769 256.593 C 411.035 278.465, 411.061 278.709, 413.440 280.943 C 416.929 284.221, 422.715 284.033, 425.716 280.544 C 427.975 277.917, 428 277.589, 428 250.367 L 428 222.846 425.077 219.923 C 422.259 217.105, 421.814 217, 412.712 217 C 404.765 217, 402.865 217.319, 400.712 219.012 M 109.445 235.069 C 103.894 236.681, 101.608 240.242, 101.172 247.957 C 100.500 259.858, 104.249 266, 112.185 266 C 117.163 266, 121.278 263.880, 122.805 260.528 C 123.462 259.086, 124 254.067, 124 249.376 C 124 241.282, 123.851 240.697, 121.077 237.923 C 119.469 236.315, 117.481 235, 116.659 235 C 115.836 235, 114.564 234.816, 113.832 234.591 C 113.099 234.366, 111.125 234.582, 109.445 235.069 M 229.445 235.093 C 223.733 236.707, 221.579 240.214, 221.156 248.589 C 220.733 256.967, 221.945 261.025, 225.770 264.034 C 230.654 267.875, 240.369 265.876, 242.805 260.528 C 244.532 256.738, 244.329 243.537, 242.490 239.980 C 240.168 235.491, 234.953 233.537, 229.445 235.093 M 349.445 235.093 C 347.765 235.568, 345.290 237.127, 343.945 238.559 C 341.706 240.942, 341.500 241.961, 341.500 250.663 C 341.500 260.129, 341.512 260.175, 344.766 263.082 C 347.368 265.407, 348.964 266, 352.616 266 C 356.496 266, 357.722 265.478, 360.600 262.600 C 363.910 259.290, 364 258.985, 364 251.050 C 364 242.512, 362.506 237.842, 359.240 236.168 C 356.180 234.600, 352.585 234.206, 349.445 235.093 M 497.455 236.455 C 495.164 238.745, 495 239.602, 495 249.280 C 495 259.080, 495.139 259.782, 497.527 262.026 C 501.156 265.435, 506.515 265.266, 509.630 261.644 C 511.781 259.143, 512 257.967, 512 248.899 C 512 239.626, 511.824 238.733, 509.545 236.455 C 507.851 234.760, 505.979 234, 503.500 234 C 501.021 234, 499.149 234.760, 497.455 236.455 M 497.073 301.635 C 495.013 304.253, 495 304.807, 495 387.953 C 495 483.410, 495.376 478.719, 487.048 487.048 C 480.823 493.272, 475.222 495, 461.273 495 C 451.603 495, 450.745 495.164, 448.455 497.455 C 446.760 499.149, 446 501.021, 446 503.500 C 446 505.979, 446.760 507.851, 448.455 509.545 C 450.786 511.877, 451.498 511.999, 462.705 511.976 C 476.086 511.948, 480.951 511.065, 488.740 507.251 C 498.771 502.339, 508.757 489.821, 510.662 479.770 C 511.003 477.972, 511.585 476.050, 511.956 475.500 C 512.327 474.950, 512.438 436.066, 512.203 389.092 L 511.775 303.684 509.433 301.342 C 506.027 297.936, 499.867 298.082, 497.073 301.635 M 89.357 344.992 C 88.178 345.467, 86.491 346.889, 85.607 348.151 C 81.548 353.946, 85.448 360.845, 93.283 361.728 L 98 362.260 98 383.548 C 98 395.257, 98.280 405.565, 98.621 406.455 C 99.602 409.012, 104.755 411.213, 108.061 410.487 C 109.664 410.135, 111.881 408.695, 112.988 407.288 C 114.888 404.872, 115 403.269, 115 378.430 C 115 363.429, 114.573 351.007, 114.006 349.517 C 113.422 347.979, 111.583 346.306, 109.538 345.452 C 105.742 343.866, 92.874 343.572, 89.357 344.992 M 153.920 345.022 C 144.434 346.604, 136.874 352.523, 132.875 361.500 C 131.079 365.533, 130.634 368.434, 130.574 376.500 C 130.479 389.272, 132.054 394.731, 137.615 400.917 C 150.991 415.794, 176.057 412.946, 185.293 395.500 C 187.948 390.485, 188.967 371.527, 186.967 364.381 C 184.319 354.924, 175.254 346.695, 166.120 345.458 C 163.579 345.114, 160.825 344.703, 160 344.545 C 159.175 344.387, 156.439 344.602, 153.920 345.022 M 209.357 344.992 C 208.178 345.467, 206.491 346.889, 205.607 348.151 C 201.704 353.724, 205.387 360.706, 212.752 361.694 L 217 362.263 217.002 382.382 C 217.003 399.540, 217.260 403.012, 218.752 405.978 C 220.924 410.300, 225.370 411.891, 229.603 409.861 C 234.677 407.428, 234.969 405.682, 234.985 377.700 C 235.002 349.057, 234.638 347.115, 228.881 345.108 C 225.166 343.813, 212.465 343.737, 209.357 344.992 M 273.920 345.063 C 263.950 346.635, 254.533 354.616, 251.883 363.740 C 250.386 368.892, 250.027 384.282, 251.268 390.106 C 252.358 395.220, 257.334 402.294, 262.027 405.399 C 267.508 409.027, 277.066 411.365, 282.887 410.503 C 294.076 408.846, 303.178 401.794, 306.425 392.266 C 308.605 385.869, 308.552 368.978, 306.333 362.463 C 302.234 350.433, 288.075 342.832, 273.920 345.063 M 329.357 344.992 C 326.295 346.227, 324 349.930, 324 353.634 C 324 357.825, 328.744 362, 333.507 362 L 336.860 362 337.180 383.974 C 337.490 405.233, 337.573 406.022, 339.755 408.201 C 342.854 411.297, 349.147 411.297, 352.245 408.201 C 354.456 405.992, 354.506 405.427, 354.798 379.296 C 355.129 349.627, 354.813 347.655, 349.360 345.377 C 345.737 343.863, 332.772 343.613, 329.357 344.992 M 393.920 345.063 C 387.861 346.019, 382.331 348.969, 377.799 353.665 C 372.752 358.894, 370.950 363.755, 370.298 373.896 C 369.006 394.009, 376.028 405.487, 392.153 409.618 C 407.205 413.474, 422.534 405.291, 426.626 391.215 C 429.089 382.741, 428.219 366.037, 424.980 359.621 C 419.554 348.873, 407.020 342.998, 393.920 345.063 M 153.420 363.145 C 149.617 364.990, 148 369.229, 148 377.357 C 148 381.509, 148.519 386.046, 149.154 387.439 C 152.769 395.372, 165.429 395.044, 169.786 386.904 C 170.619 385.347, 170.972 381.563, 170.786 376.168 C 170.512 368.176, 170.367 367.717, 167.234 364.918 C 164.672 362.628, 163.057 362.015, 159.734 362.068 C 157.405 362.105, 154.564 362.589, 153.420 363.145 M 273.110 363.396 C 269.292 365.512, 268.074 368.849, 268.035 377.300 C 267.982 389.107, 270.754 393.067, 279.154 393.183 C 283.630 393.244, 287.726 390.814, 289.735 386.904 C 291.479 383.510, 291.334 371.547, 289.506 368.011 C 288.684 366.422, 287.009 364.419, 285.783 363.561 C 283.082 361.669, 276.383 361.581, 273.110 363.396 M 393.110 363.396 C 389.184 365.572, 388.074 368.809, 388.035 378.194 C 388.004 385.800, 388.282 387.215, 390.250 389.497 C 394.536 394.465, 403.347 394.453, 408.025 389.473 C 409.980 387.392, 410.514 385.596, 410.828 380.043 C 411.508 367.999, 407.751 361.965, 399.615 362.035 C 397.352 362.055, 394.425 362.667, 393.110 363.396 M 3.158 447.602 C 0.908 449.178, 0.876 449.472, 1.185 465.852 C 1.491 482.035, 1.583 482.664, 4.470 488.361 C 9.975 499.226, 21.413 508.242, 33.115 510.940 C 35.662 511.527, 53.968 511.961, 76.795 511.976 L 116.091 512 118.545 509.545 C 121.885 506.206, 121.885 500.794, 118.545 497.455 L 116.091 495 78.227 495 C 33.963 495, 32.719 494.814, 24.952 487.048 C 18.728 480.823, 17 475.222, 17 461.273 C 17 451.603, 16.836 450.745, 14.545 448.455 C 11.655 445.564, 6.607 445.186, 3.158 447.602 M 153.455 497.455 C 151.760 499.149, 151 501.021, 151 503.500 C 151 505.979, 151.760 507.851, 153.455 509.545 L 155.909 512 214.500 512 L 273.091 512 275.545 509.545 C 277.240 507.851, 278 505.979, 278 503.500 C 278 501.021, 277.240 499.149, 275.545 497.455 L 273.091 495 214.500 495 L 155.909 495 153.455 497.455" stroke="none" fill="black" fill-rule="evenodd"/>
</svg>